<svg xmlns="http://www.w3.org/2000/svg" viewBox="0 0 622.99 84.16"><title>logo_landing</title><path d="M251.69,61c0-14.26,10.51-23.26,27.93-23.26s27.87,9,27.87,23.26S297,84.13,279.62,84.13,251.69,75.13,251.69,61Zm49.61,0c0-11.31-8.57-17.64-21.68-17.64S257.88,49.64,257.88,61s8.57,17.57,21.74,17.57S301.3,72.18,301.3,61Z" style="fill:#88122a"/><path d="M369.05,70.67c0,7.85-6.63,12-17.28,12h-31.9V39.13h29.3c10.59,0,17.29,3.67,17.29,10.8,0,5.11-3.6,9.36-9.58,9.94C363.29,60.3,369.05,63.32,369.05,70.67ZM325.84,57.49h22.47c7.56,0,12.1-1.3,12.1-6.55s-4.54-6.63-12.1-6.63H325.84Zm36.94,12.67c0-5.83-4.53-7.49-12.09-7.49H325.84V77.51h24.85C358.25,77.51,362.78,75.85,362.78,70.16Z" style="fill:#88122a"/><path d="M378,61c0-14.26,10.51-23.26,27.94-23.26s27.87,9,27.87,23.26-10.52,23.18-27.87,23.18S378,75.13,378,61Zm49.61,0c0-11.31-8.56-17.64-21.67-17.64S384.16,49.64,384.16,61s8.57,17.57,21.75,17.57S427.58,72.18,427.58,61Z" style="fill:#88122a"/><path d="M486.41,44.6H465V82.69h-6V44.6H437.66V39.13h48.75Z" style="fill:#88122a"/><path d="M496.27,82.69V39.13h6.05V82.69Z" style="fill:#88122a"/><path d="M560.13,70.52l5.62,2.81c-4.25,6.41-12.31,10.8-23.55,10.8-17,0-27.5-9.07-27.5-23.18s10.51-23.26,27.72-23.26c11,0,19.08,4.61,23.26,10.87l-5.62,2.81c-3.53-5.47-10-8.06-17.71-8.06-12.89,0-21.46,6-21.46,17.64s8.57,17.57,21.46,17.57C550.05,78.52,556.61,76.07,560.13,70.52Z" style="fill:#88122a"/><path d="M623,70c0,8.13-8.57,14-23.55,14-10,0-19.66-2.95-26.78-8.86l4.1-4.18c6.55,5.33,13.9,7.71,23,7.71,10.73,0,17-3.1,17-8.21s-6.48-6.33-18.58-7.34-24-3.68-24-12.39c0-8.35,10.73-13,23-13,9.87,0,18.22,3.24,23.55,7.63l-4.25,4c-4.68-4.1-11.38-6.19-18.94-6.26-8-.08-17.21,1.94-17.21,7.41,0,5.12,8.28,6.27,18.87,7.06C613.27,58.57,623,61.23,623,70Z" style="fill:#88122a"/><path d="M219.8,47.78c15.48-1.8,26-10.92,26-25.56C245.84,5.66,232.63,0,213.91,0L167.3.12l0,0H156.55L123.67,35.05,90.79.14H78.6l0,0L32,0C13.25,0,0,5.66,0,22.22H0l0-.05L0,83.71H9.85V48.06H33.56c2.11,0,4.23.06,6.41.08H78.46l0-9.36H32.91c-13.56,0-22.56-5.16-22.56-16.56S19.27,7.89,32.83,7.89l45.68.23C81.86,8.07,84.06,8,85,8l31.81,33.86L77.35,84.13H90.19l33.12-35.28,33.12,35.28h13.2L130.15,41.77,162.06,7.92l-.18.26s-.12.18,5.53,0l45.64-.29c13.56,0,22.47,2.93,22.47,14.33s-9,16.56-22.55,16.56H167.4l0,9.36h40l30.8,35.57h13.26Z" style="fill:#231f20"/><path d="M85.64,84l.1.12C86.23,84.09,86.18,84.05,85.64,84Z" style="fill:#231f20"/></svg>